<svg version="1.1" viewBox="0.0 0.0 82.0 82.0" fill="none" stroke="none" stroke-linecap="square" stroke-miterlimit="10" xmlns:xlink="http://www.w3.org/1999/xlink" xmlns="http://www.w3.org/2000/svg"><clipPath id="p.0"><path d="m0 0l82.0 0l0 82.0l-82.0 0l0 -82.0z" clip-rule="nonzero"/></clipPath><g clip-path="url(#p.0)"><path fill="#000000" fill-opacity="0.0" d="m0 0l82.0 0l0 82.0l-82.0 0z" fill-rule="evenodd"/><path fill="#4a86e8" d="m2.5486205 15.544545l0 0c0 -7.071126 5.7322807 -12.803406 12.803406 -12.803406l51.432556 0l0 0c3.3956757 0 6.6522675 1.3489263 9.053375 3.7500308c2.4011078 2.401104 3.7500305 5.6577005 3.7500305 9.053375l0 51.212086c0 7.071129 -5.732277 12.803406 -12.803406 12.803406l-51.432556 0l0 0c-7.071125 0 -12.803406 -5.732277 -12.803406 -12.803406z" fill-rule="evenodd"/><path stroke="#000000" stroke-width="4.0" stroke-linejoin="round" stroke-linecap="butt" d="m2.5486205 15.544545l0 0c0 -7.071126 5.7322807 -12.803406 12.803406 -12.803406l51.432556 0l0 0c3.3956757 0 6.6522675 1.3489263 9.053375 3.7500308c2.4011078 2.401104 3.7500305 5.6577005 3.7500305 9.053375l0 51.212086c0 7.071129 -5.732277 12.803406 -12.803406 12.803406l-51.432556 0l0 0c-7.071125 0 -12.803406 -5.732277 -12.803406 -12.803406z" fill-rule="evenodd"/><path fill="#000000" d="m30.320034 1.4840766l0 8.623687l4.32143 0l0 4.7430983l-4.1056786 0l0 5.390334l10.588181 10.56469l9.940216 -9.917452l0 -6.252846l-4.3221397 0l0 -4.7430983l4.5378914 0l-0.075229645 -8.552873" fill-rule="evenodd"/><path stroke="#000000" stroke-width="2.0" stroke-linejoin="round" stroke-linecap="butt" d="m30.320034 1.4840766l0 8.623687l4.32143 0l0 4.7430983l-4.1056786 0l0 5.390334l10.588181 10.56469l9.940216 -9.917452l0 -6.252846l-4.3221397 0l0 -4.7430983l4.5378914 0l-0.075229645 -8.552873" fill-rule="evenodd"/><path fill="#000000" fill-opacity="0.0" d="m41.068306 2.7411392l0 76.81889" fill-rule="evenodd"/><path stroke="#000000" stroke-width="2.0" stroke-linejoin="round" stroke-linecap="butt" stroke-dasharray="2.0,6.0" d="m41.068306 2.7411392l0 76.81889" fill-rule="evenodd"/><path fill="#000000" fill-opacity="0.0" d="m41.77705 32.159286l9.952759 47.401573" fill-rule="evenodd"/><path stroke="#000000" stroke-width="2.0" stroke-linejoin="round" stroke-linecap="butt" stroke-dasharray="2.0,6.0" d="m41.77705 32.159286l9.952759 47.401573" fill-rule="evenodd"/><path fill="#000000" fill-opacity="0.0" d="m40.47518 32.159286l-9.952757 47.401573" fill-rule="evenodd"/><path stroke="#000000" stroke-width="2.0" stroke-linejoin="round" stroke-linecap="butt" stroke-dasharray="2.0,6.0" d="m40.47518 32.159286l-9.952757 47.401573" fill-rule="evenodd"/><path fill="#000000" fill-opacity="0.0" d="m42.20935 32.58968l20.31496 42.236225" fill-rule="evenodd"/><path stroke="#000000" stroke-width="2.0" stroke-linejoin="round" stroke-linecap="butt" stroke-dasharray="2.0,6.0" d="m42.20935 32.58968l20.31496 42.236225" fill-rule="evenodd"/><path fill="#000000" fill-opacity="0.0" d="m40.47518 32.159286l-20.31496 42.23622" fill-rule="evenodd"/><path stroke="#000000" stroke-width="2.0" stroke-linejoin="round" stroke-linecap="butt" stroke-dasharray="2.0,6.0" d="m40.47518 32.159286l-20.31496 42.23622" fill-rule="evenodd"/><path fill="#000000" fill-opacity="0.0" d="m41.77705 32.80558l24.629925 24.787403" fill-rule="evenodd"/><path stroke="#000000" stroke-width="2.0" stroke-linejoin="round" stroke-linecap="butt" stroke-dasharray="2.0,6.0" d="m41.77705 32.80558l24.629925 24.787403" fill-rule="evenodd"/><path fill="#000000" fill-opacity="0.0" d="m40.47518 32.159286l-24.629921 24.787403" fill-rule="evenodd"/><path stroke="#000000" stroke-width="2.0" stroke-linejoin="round" stroke-linecap="butt" stroke-dasharray="2.0,6.0" d="m40.47518 32.159286l-24.629921 24.787403" fill-rule="evenodd"/></g></svg>